<?xml version="1.0" encoding="utf-8" standalone="no"?>
<!DOCTYPE svg PUBLIC "-//W3C//DTD SVG 1.1//EN"
  "http://www.w3.org/Graphics/SVG/1.1/DTD/svg11.dtd">
<svg xmlns:xlink="http://www.w3.org/1999/xlink" width="712.558125pt" height="423.034375pt" viewBox="0 0 712.558125 423.034375" xmlns="http://www.w3.org/2000/svg" version="1.1">
 <metadata>
  <rdf:RDF xmlns:dc="http://purl.org/dc/elements/1.1/" xmlns:cc="http://creativecommons.org/ns#" xmlns:rdf="http://www.w3.org/1999/02/22-rdf-syntax-ns#">
   <cc:Work>
    <dc:type rdf:resource="http://purl.org/dc/dcmitype/StillImage"/>
    <dc:date>2025-06-13T10:35:04.863889</dc:date>
    <dc:format>image/svg+xml</dc:format>
    <dc:creator>
     <cc:Agent>
      <dc:title>Matplotlib v3.10.3, https://matplotlib.org/</dc:title>
     </cc:Agent>
    </dc:creator>
   </cc:Work>
  </rdf:RDF>
 </metadata>
 <defs>
  <style type="text/css">*{stroke-linejoin: round; stroke-linecap: butt}</style>
 </defs>
 <g id="figure_1">
  <g id="patch_1">
   <path d="M 0 423.034375 
L 712.558125 423.034375 
L 712.558125 0 
L 0 0 
z
" style="fill: #ffffff"/>
  </g>
  <g id="axes_1">
   <g id="patch_2">
    <path d="M 53.328125 385.478125 
L 705.358125 385.478125 
L 705.358125 22.318125 
L 53.328125 22.318125 
z
" style="fill: #ffffff"/>
   </g>
   <g id="matplotlib.axis_1">
    <g id="xtick_1">
     <g id="line2d_1">
      <defs>
       <path id="m1f89e5b4b6" d="M 0 0 
L 0 3.5 
" style="stroke: #000000; stroke-width: 0.8"/>
      </defs>
      <g>
       <use xlink:href="#m1f89e5b4b6" x="99.523242" y="385.478125" style="stroke: #000000; stroke-width: 0.8"/>
      </g>
     </g>
     <g id="text_1">
      <!-- 2.5 -->
      <g transform="translate(91.571679 400.076562) scale(0.1 -0.1)">
       <defs>
        <path id="DejaVuSans-32" d="M 1228 531 
L 3431 531 
L 3431 0 
L 469 0 
L 469 531 
Q 828 903 1448 1529 
Q 2069 2156 2228 2338 
Q 2531 2678 2651 2914 
Q 2772 3150 2772 3378 
Q 2772 3750 2511 3984 
Q 2250 4219 1831 4219 
Q 1534 4219 1204 4116 
Q 875 4013 500 3803 
L 500 4441 
Q 881 4594 1212 4672 
Q 1544 4750 1819 4750 
Q 2544 4750 2975 4387 
Q 3406 4025 3406 3419 
Q 3406 3131 3298 2873 
Q 3191 2616 2906 2266 
Q 2828 2175 2409 1742 
Q 1991 1309 1228 531 
z
" transform="scale(0.015625)"/>
        <path id="DejaVuSans-2e" d="M 684 794 
L 1344 794 
L 1344 0 
L 684 0 
L 684 794 
z
" transform="scale(0.015625)"/>
        <path id="DejaVuSans-35" d="M 691 4666 
L 3169 4666 
L 3169 4134 
L 1269 4134 
L 1269 2991 
Q 1406 3038 1543 3061 
Q 1681 3084 1819 3084 
Q 2600 3084 3056 2656 
Q 3513 2228 3513 1497 
Q 3513 744 3044 326 
Q 2575 -91 1722 -91 
Q 1428 -91 1123 -41 
Q 819 9 494 109 
L 494 744 
Q 775 591 1075 516 
Q 1375 441 1709 441 
Q 2250 441 2565 725 
Q 2881 1009 2881 1497 
Q 2881 1984 2565 2268 
Q 2250 2553 1709 2553 
Q 1456 2553 1204 2497 
Q 953 2441 691 2322 
L 691 4666 
z
" transform="scale(0.015625)"/>
       </defs>
       <use xlink:href="#DejaVuSans-32"/>
       <use xlink:href="#DejaVuSans-2e" transform="translate(63.623047 0)"/>
       <use xlink:href="#DejaVuSans-35" transform="translate(95.410156 0)"/>
      </g>
     </g>
    </g>
    <g id="xtick_2">
     <g id="line2d_2">
      <g>
       <use xlink:href="#m1f89e5b4b6" x="182.310189" y="385.478125" style="stroke: #000000; stroke-width: 0.8"/>
      </g>
     </g>
     <g id="text_2">
      <!-- 5.0 -->
      <g transform="translate(174.358627 400.076562) scale(0.1 -0.1)">
       <defs>
        <path id="DejaVuSans-30" d="M 2034 4250 
Q 1547 4250 1301 3770 
Q 1056 3291 1056 2328 
Q 1056 1369 1301 889 
Q 1547 409 2034 409 
Q 2525 409 2770 889 
Q 3016 1369 3016 2328 
Q 3016 3291 2770 3770 
Q 2525 4250 2034 4250 
z
M 2034 4750 
Q 2819 4750 3233 4129 
Q 3647 3509 3647 2328 
Q 3647 1150 3233 529 
Q 2819 -91 2034 -91 
Q 1250 -91 836 529 
Q 422 1150 422 2328 
Q 422 3509 836 4129 
Q 1250 4750 2034 4750 
z
" transform="scale(0.015625)"/>
       </defs>
       <use xlink:href="#DejaVuSans-35"/>
       <use xlink:href="#DejaVuSans-2e" transform="translate(63.623047 0)"/>
       <use xlink:href="#DejaVuSans-30" transform="translate(95.410156 0)"/>
      </g>
     </g>
    </g>
    <g id="xtick_3">
     <g id="line2d_3">
      <g>
       <use xlink:href="#m1f89e5b4b6" x="265.097137" y="385.478125" style="stroke: #000000; stroke-width: 0.8"/>
      </g>
     </g>
     <g id="text_3">
      <!-- 7.5 -->
      <g transform="translate(257.145575 400.076562) scale(0.1 -0.1)">
       <defs>
        <path id="DejaVuSans-37" d="M 525 4666 
L 3525 4666 
L 3525 4397 
L 1831 0 
L 1172 0 
L 2766 4134 
L 525 4134 
L 525 4666 
z
" transform="scale(0.015625)"/>
       </defs>
       <use xlink:href="#DejaVuSans-37"/>
       <use xlink:href="#DejaVuSans-2e" transform="translate(63.623047 0)"/>
       <use xlink:href="#DejaVuSans-35" transform="translate(95.410156 0)"/>
      </g>
     </g>
    </g>
    <g id="xtick_4">
     <g id="line2d_4">
      <g>
       <use xlink:href="#m1f89e5b4b6" x="347.884085" y="385.478125" style="stroke: #000000; stroke-width: 0.8"/>
      </g>
     </g>
     <g id="text_4">
      <!-- 10.0 -->
      <g transform="translate(336.751272 400.076562) scale(0.1 -0.1)">
       <defs>
        <path id="DejaVuSans-31" d="M 794 531 
L 1825 531 
L 1825 4091 
L 703 3866 
L 703 4441 
L 1819 4666 
L 2450 4666 
L 2450 531 
L 3481 531 
L 3481 0 
L 794 0 
L 794 531 
z
" transform="scale(0.015625)"/>
       </defs>
       <use xlink:href="#DejaVuSans-31"/>
       <use xlink:href="#DejaVuSans-30" transform="translate(63.623047 0)"/>
       <use xlink:href="#DejaVuSans-2e" transform="translate(127.246094 0)"/>
       <use xlink:href="#DejaVuSans-30" transform="translate(159.033203 0)"/>
      </g>
     </g>
    </g>
    <g id="xtick_5">
     <g id="line2d_5">
      <g>
       <use xlink:href="#m1f89e5b4b6" x="430.671033" y="385.478125" style="stroke: #000000; stroke-width: 0.8"/>
      </g>
     </g>
     <g id="text_5">
      <!-- 12.5 -->
      <g transform="translate(419.53822 400.076562) scale(0.1 -0.1)">
       <use xlink:href="#DejaVuSans-31"/>
       <use xlink:href="#DejaVuSans-32" transform="translate(63.623047 0)"/>
       <use xlink:href="#DejaVuSans-2e" transform="translate(127.246094 0)"/>
       <use xlink:href="#DejaVuSans-35" transform="translate(159.033203 0)"/>
      </g>
     </g>
    </g>
    <g id="xtick_6">
     <g id="line2d_6">
      <g>
       <use xlink:href="#m1f89e5b4b6" x="513.45798" y="385.478125" style="stroke: #000000; stroke-width: 0.8"/>
      </g>
     </g>
     <g id="text_6">
      <!-- 15.0 -->
      <g transform="translate(502.325168 400.076562) scale(0.1 -0.1)">
       <use xlink:href="#DejaVuSans-31"/>
       <use xlink:href="#DejaVuSans-35" transform="translate(63.623047 0)"/>
       <use xlink:href="#DejaVuSans-2e" transform="translate(127.246094 0)"/>
       <use xlink:href="#DejaVuSans-30" transform="translate(159.033203 0)"/>
      </g>
     </g>
    </g>
    <g id="xtick_7">
     <g id="line2d_7">
      <g>
       <use xlink:href="#m1f89e5b4b6" x="596.244928" y="385.478125" style="stroke: #000000; stroke-width: 0.8"/>
      </g>
     </g>
     <g id="text_7">
      <!-- 17.5 -->
      <g transform="translate(585.112115 400.076562) scale(0.1 -0.1)">
       <use xlink:href="#DejaVuSans-31"/>
       <use xlink:href="#DejaVuSans-37" transform="translate(63.623047 0)"/>
       <use xlink:href="#DejaVuSans-2e" transform="translate(127.246094 0)"/>
       <use xlink:href="#DejaVuSans-35" transform="translate(159.033203 0)"/>
      </g>
     </g>
    </g>
    <g id="xtick_8">
     <g id="line2d_8">
      <g>
       <use xlink:href="#m1f89e5b4b6" x="679.031876" y="385.478125" style="stroke: #000000; stroke-width: 0.8"/>
      </g>
     </g>
     <g id="text_8">
      <!-- 20.0 -->
      <g transform="translate(667.899063 400.076562) scale(0.1 -0.1)">
       <use xlink:href="#DejaVuSans-32"/>
       <use xlink:href="#DejaVuSans-30" transform="translate(63.623047 0)"/>
       <use xlink:href="#DejaVuSans-2e" transform="translate(127.246094 0)"/>
       <use xlink:href="#DejaVuSans-30" transform="translate(159.033203 0)"/>
      </g>
     </g>
    </g>
    <g id="text_9">
     <!-- kDa -->
     <g transform="translate(369.53375 413.754687) scale(0.1 -0.1)">
      <defs>
       <path id="DejaVuSans-6b" d="M 581 4863 
L 1159 4863 
L 1159 1991 
L 2875 3500 
L 3609 3500 
L 1753 1863 
L 3688 0 
L 2938 0 
L 1159 1709 
L 1159 0 
L 581 0 
L 581 4863 
z
" transform="scale(0.015625)"/>
       <path id="DejaVuSans-44" d="M 1259 4147 
L 1259 519 
L 2022 519 
Q 2988 519 3436 956 
Q 3884 1394 3884 2338 
Q 3884 3275 3436 3711 
Q 2988 4147 2022 4147 
L 1259 4147 
z
M 628 4666 
L 1925 4666 
Q 3281 4666 3915 4102 
Q 4550 3538 4550 2338 
Q 4550 1131 3912 565 
Q 3275 0 1925 0 
L 628 0 
L 628 4666 
z
" transform="scale(0.015625)"/>
       <path id="DejaVuSans-61" d="M 2194 1759 
Q 1497 1759 1228 1600 
Q 959 1441 959 1056 
Q 959 750 1161 570 
Q 1363 391 1709 391 
Q 2188 391 2477 730 
Q 2766 1069 2766 1631 
L 2766 1759 
L 2194 1759 
z
M 3341 1997 
L 3341 0 
L 2766 0 
L 2766 531 
Q 2569 213 2275 61 
Q 1981 -91 1556 -91 
Q 1019 -91 701 211 
Q 384 513 384 1019 
Q 384 1609 779 1909 
Q 1175 2209 1959 2209 
L 2766 2209 
L 2766 2266 
Q 2766 2663 2505 2880 
Q 2244 3097 1772 3097 
Q 1472 3097 1187 3025 
Q 903 2953 641 2809 
L 641 3341 
Q 956 3463 1253 3523 
Q 1550 3584 1831 3584 
Q 2591 3584 2966 3190 
Q 3341 2797 3341 1997 
z
" transform="scale(0.015625)"/>
      </defs>
      <use xlink:href="#DejaVuSans-6b"/>
      <use xlink:href="#DejaVuSans-44" transform="translate(57.910156 0)"/>
      <use xlink:href="#DejaVuSans-61" transform="translate(134.912109 0)"/>
     </g>
    </g>
   </g>
   <g id="matplotlib.axis_2">
    <g id="ytick_1">
     <g id="line2d_9">
      <defs>
       <path id="m0d21ef1e6d" d="M 0 0 
L -3.5 0 
" style="stroke: #000000; stroke-width: 0.8"/>
      </defs>
      <g>
       <use xlink:href="#m0d21ef1e6d" x="53.328125" y="339.039409" style="stroke: #000000; stroke-width: 0.8"/>
      </g>
     </g>
     <g id="text_10">
      <!-- 1000 -->
      <g transform="translate(20.878125 342.838628) scale(0.1 -0.1)">
       <use xlink:href="#DejaVuSans-31"/>
       <use xlink:href="#DejaVuSans-30" transform="translate(63.623047 0)"/>
       <use xlink:href="#DejaVuSans-30" transform="translate(127.246094 0)"/>
       <use xlink:href="#DejaVuSans-30" transform="translate(190.869141 0)"/>
      </g>
     </g>
    </g>
    <g id="ytick_2">
     <g id="line2d_10">
      <g>
       <use xlink:href="#m0d21ef1e6d" x="53.328125" y="287.398218" style="stroke: #000000; stroke-width: 0.8"/>
      </g>
     </g>
     <g id="text_11">
      <!-- 2000 -->
      <g transform="translate(20.878125 291.197437) scale(0.1 -0.1)">
       <use xlink:href="#DejaVuSans-32"/>
       <use xlink:href="#DejaVuSans-30" transform="translate(63.623047 0)"/>
       <use xlink:href="#DejaVuSans-30" transform="translate(127.246094 0)"/>
       <use xlink:href="#DejaVuSans-30" transform="translate(190.869141 0)"/>
      </g>
     </g>
    </g>
    <g id="ytick_3">
     <g id="line2d_11">
      <g>
       <use xlink:href="#m0d21ef1e6d" x="53.328125" y="235.757028" style="stroke: #000000; stroke-width: 0.8"/>
      </g>
     </g>
     <g id="text_12">
      <!-- 3000 -->
      <g transform="translate(20.878125 239.556247) scale(0.1 -0.1)">
       <defs>
        <path id="DejaVuSans-33" d="M 2597 2516 
Q 3050 2419 3304 2112 
Q 3559 1806 3559 1356 
Q 3559 666 3084 287 
Q 2609 -91 1734 -91 
Q 1441 -91 1130 -33 
Q 819 25 488 141 
L 488 750 
Q 750 597 1062 519 
Q 1375 441 1716 441 
Q 2309 441 2620 675 
Q 2931 909 2931 1356 
Q 2931 1769 2642 2001 
Q 2353 2234 1838 2234 
L 1294 2234 
L 1294 2753 
L 1863 2753 
Q 2328 2753 2575 2939 
Q 2822 3125 2822 3475 
Q 2822 3834 2567 4026 
Q 2313 4219 1838 4219 
Q 1578 4219 1281 4162 
Q 984 4106 628 3988 
L 628 4550 
Q 988 4650 1302 4700 
Q 1616 4750 1894 4750 
Q 2613 4750 3031 4423 
Q 3450 4097 3450 3541 
Q 3450 3153 3228 2886 
Q 3006 2619 2597 2516 
z
" transform="scale(0.015625)"/>
       </defs>
       <use xlink:href="#DejaVuSans-33"/>
       <use xlink:href="#DejaVuSans-30" transform="translate(63.623047 0)"/>
       <use xlink:href="#DejaVuSans-30" transform="translate(127.246094 0)"/>
       <use xlink:href="#DejaVuSans-30" transform="translate(190.869141 0)"/>
      </g>
     </g>
    </g>
    <g id="ytick_4">
     <g id="line2d_12">
      <g>
       <use xlink:href="#m0d21ef1e6d" x="53.328125" y="184.115838" style="stroke: #000000; stroke-width: 0.8"/>
      </g>
     </g>
     <g id="text_13">
      <!-- 4000 -->
      <g transform="translate(20.878125 187.915056) scale(0.1 -0.1)">
       <defs>
        <path id="DejaVuSans-34" d="M 2419 4116 
L 825 1625 
L 2419 1625 
L 2419 4116 
z
M 2253 4666 
L 3047 4666 
L 3047 1625 
L 3713 1625 
L 3713 1100 
L 3047 1100 
L 3047 0 
L 2419 0 
L 2419 1100 
L 313 1100 
L 313 1709 
L 2253 4666 
z
" transform="scale(0.015625)"/>
       </defs>
       <use xlink:href="#DejaVuSans-34"/>
       <use xlink:href="#DejaVuSans-30" transform="translate(63.623047 0)"/>
       <use xlink:href="#DejaVuSans-30" transform="translate(127.246094 0)"/>
       <use xlink:href="#DejaVuSans-30" transform="translate(190.869141 0)"/>
      </g>
     </g>
    </g>
    <g id="ytick_5">
     <g id="line2d_13">
      <g>
       <use xlink:href="#m0d21ef1e6d" x="53.328125" y="132.474647" style="stroke: #000000; stroke-width: 0.8"/>
      </g>
     </g>
     <g id="text_14">
      <!-- 5000 -->
      <g transform="translate(20.878125 136.273866) scale(0.1 -0.1)">
       <use xlink:href="#DejaVuSans-35"/>
       <use xlink:href="#DejaVuSans-30" transform="translate(63.623047 0)"/>
       <use xlink:href="#DejaVuSans-30" transform="translate(127.246094 0)"/>
       <use xlink:href="#DejaVuSans-30" transform="translate(190.869141 0)"/>
      </g>
     </g>
    </g>
    <g id="ytick_6">
     <g id="line2d_14">
      <g>
       <use xlink:href="#m0d21ef1e6d" x="53.328125" y="80.833457" style="stroke: #000000; stroke-width: 0.8"/>
      </g>
     </g>
     <g id="text_15">
      <!-- 6000 -->
      <g transform="translate(20.878125 84.632675) scale(0.1 -0.1)">
       <defs>
        <path id="DejaVuSans-36" d="M 2113 2584 
Q 1688 2584 1439 2293 
Q 1191 2003 1191 1497 
Q 1191 994 1439 701 
Q 1688 409 2113 409 
Q 2538 409 2786 701 
Q 3034 994 3034 1497 
Q 3034 2003 2786 2293 
Q 2538 2584 2113 2584 
z
M 3366 4563 
L 3366 3988 
Q 3128 4100 2886 4159 
Q 2644 4219 2406 4219 
Q 1781 4219 1451 3797 
Q 1122 3375 1075 2522 
Q 1259 2794 1537 2939 
Q 1816 3084 2150 3084 
Q 2853 3084 3261 2657 
Q 3669 2231 3669 1497 
Q 3669 778 3244 343 
Q 2819 -91 2113 -91 
Q 1303 -91 875 529 
Q 447 1150 447 2328 
Q 447 3434 972 4092 
Q 1497 4750 2381 4750 
Q 2619 4750 2861 4703 
Q 3103 4656 3366 4563 
z
" transform="scale(0.015625)"/>
       </defs>
       <use xlink:href="#DejaVuSans-36"/>
       <use xlink:href="#DejaVuSans-30" transform="translate(63.623047 0)"/>
       <use xlink:href="#DejaVuSans-30" transform="translate(127.246094 0)"/>
       <use xlink:href="#DejaVuSans-30" transform="translate(190.869141 0)"/>
      </g>
     </g>
    </g>
    <g id="ytick_7">
     <g id="line2d_15">
      <g>
       <use xlink:href="#m0d21ef1e6d" x="53.328125" y="29.192266" style="stroke: #000000; stroke-width: 0.8"/>
      </g>
     </g>
     <g id="text_16">
      <!-- 7000 -->
      <g transform="translate(20.878125 32.991485) scale(0.1 -0.1)">
       <use xlink:href="#DejaVuSans-37"/>
       <use xlink:href="#DejaVuSans-30" transform="translate(63.623047 0)"/>
       <use xlink:href="#DejaVuSans-30" transform="translate(127.246094 0)"/>
       <use xlink:href="#DejaVuSans-30" transform="translate(190.869141 0)"/>
      </g>
     </g>
    </g>
    <g id="text_17">
     <!-- Values -->
     <g transform="translate(14.798438 220.234062) rotate(-90) scale(0.1 -0.1)">
      <defs>
       <path id="DejaVuSans-56" d="M 1831 0 
L 50 4666 
L 709 4666 
L 2188 738 
L 3669 4666 
L 4325 4666 
L 2547 0 
L 1831 0 
z
" transform="scale(0.015625)"/>
       <path id="DejaVuSans-6c" d="M 603 4863 
L 1178 4863 
L 1178 0 
L 603 0 
L 603 4863 
z
" transform="scale(0.015625)"/>
       <path id="DejaVuSans-75" d="M 544 1381 
L 544 3500 
L 1119 3500 
L 1119 1403 
Q 1119 906 1312 657 
Q 1506 409 1894 409 
Q 2359 409 2629 706 
Q 2900 1003 2900 1516 
L 2900 3500 
L 3475 3500 
L 3475 0 
L 2900 0 
L 2900 538 
Q 2691 219 2414 64 
Q 2138 -91 1772 -91 
Q 1169 -91 856 284 
Q 544 659 544 1381 
z
M 1991 3584 
L 1991 3584 
z
" transform="scale(0.015625)"/>
       <path id="DejaVuSans-65" d="M 3597 1894 
L 3597 1613 
L 953 1613 
Q 991 1019 1311 708 
Q 1631 397 2203 397 
Q 2534 397 2845 478 
Q 3156 559 3463 722 
L 3463 178 
Q 3153 47 2828 -22 
Q 2503 -91 2169 -91 
Q 1331 -91 842 396 
Q 353 884 353 1716 
Q 353 2575 817 3079 
Q 1281 3584 2069 3584 
Q 2775 3584 3186 3129 
Q 3597 2675 3597 1894 
z
M 3022 2063 
Q 3016 2534 2758 2815 
Q 2500 3097 2075 3097 
Q 1594 3097 1305 2825 
Q 1016 2553 972 2059 
L 3022 2063 
z
" transform="scale(0.015625)"/>
       <path id="DejaVuSans-73" d="M 2834 3397 
L 2834 2853 
Q 2591 2978 2328 3040 
Q 2066 3103 1784 3103 
Q 1356 3103 1142 2972 
Q 928 2841 928 2578 
Q 928 2378 1081 2264 
Q 1234 2150 1697 2047 
L 1894 2003 
Q 2506 1872 2764 1633 
Q 3022 1394 3022 966 
Q 3022 478 2636 193 
Q 2250 -91 1575 -91 
Q 1294 -91 989 -36 
Q 684 19 347 128 
L 347 722 
Q 666 556 975 473 
Q 1284 391 1588 391 
Q 1994 391 2212 530 
Q 2431 669 2431 922 
Q 2431 1156 2273 1281 
Q 2116 1406 1581 1522 
L 1381 1569 
Q 847 1681 609 1914 
Q 372 2147 372 2553 
Q 372 3047 722 3315 
Q 1072 3584 1716 3584 
Q 2034 3584 2315 3537 
Q 2597 3491 2834 3397 
z
" transform="scale(0.015625)"/>
      </defs>
      <use xlink:href="#DejaVuSans-56"/>
      <use xlink:href="#DejaVuSans-61" transform="translate(60.658203 0)"/>
      <use xlink:href="#DejaVuSans-6c" transform="translate(121.9375 0)"/>
      <use xlink:href="#DejaVuSans-75" transform="translate(149.720703 0)"/>
      <use xlink:href="#DejaVuSans-65" transform="translate(213.099609 0)"/>
      <use xlink:href="#DejaVuSans-73" transform="translate(274.623047 0)"/>
     </g>
    </g>
   </g>
   <g id="line2d_16">
    <path d="M 82.965852 366.632185 
L 86.27733 366.287696 
L 89.588808 365.808316 
L 96.211764 364.075898 
L 102.83472 361.696531 
L 106.146198 360.765104 
L 109.457676 358.942583 
L 112.769153 357.26463 
L 116.080631 355.840928 
L 119.392109 354.609869 
L 122.703587 352.07729 
L 126.015065 350.16949 
L 132.638021 347.67467 
L 135.949499 345.723639 
L 139.260977 343.943237 
L 142.572455 341.912397 
L 145.883933 341.234482 
L 149.19541 339.35842 
L 152.506888 337.624845 
L 155.818366 336.280584 
L 159.129844 334.381361 
L 162.441322 333.607796 
L 165.7528 332.163939 
L 169.064278 330.595805 
L 172.375756 331.421458 
L 175.687234 333.3716 
L 182.310189 335.281185 
L 188.933145 338.195649 
L 192.244623 339.377146 
L 198.867579 341.421935 
L 205.490535 343.468394 
L 212.113491 345.516965 
L 215.424969 346.272587 
L 218.736446 346.743834 
L 222.047924 346.959323 
L 225.359402 346.978522 
L 228.67088 346.861583 
L 231.982358 346.56048 
L 235.293836 345.969466 
L 238.605314 344.940691 
L 241.916792 343.408223 
L 245.22827 341.424874 
L 248.539748 339.027049 
L 251.851226 336.23607 
L 255.162703 333.081054 
L 258.474181 329.514611 
L 261.785659 325.313493 
L 265.097137 320.457725 
L 268.408615 315.135683 
L 271.720093 309.05978 
L 275.031571 301.890819 
L 281.654527 286.661724 
L 284.966005 279.475588 
L 288.277483 271.873359 
L 291.58896 262.384218 
L 294.900438 251.304533 
L 298.211916 239.558449 
L 304.834872 214.824703 
L 308.14635 202.126789 
L 311.457828 188.794341 
L 321.392262 145.078887 
L 328.015217 118.94892 
L 331.326695 105.001257 
L 334.638173 92.065073 
L 341.261129 73.505978 
L 344.572607 61.456886 
L 347.884085 52.507633 
L 351.195563 47.789611 
L 354.507041 42.6106 
L 357.818519 38.825398 
L 361.129997 40.401906 
L 364.441474 44.238585 
L 367.752952 47.678764 
L 371.06443 52.402891 
L 374.375908 59.440281 
L 377.687386 68.658991 
L 380.998864 79.288674 
L 384.310342 90.654035 
L 387.62182 103.329517 
L 390.933298 117.992173 
L 394.244776 134.978369 
L 400.867731 171.260922 
L 404.179209 188.136459 
L 407.490687 203.906622 
L 410.802165 218.92138 
L 414.113643 233.229488 
L 417.425121 246.393706 
L 420.736599 258.396622 
L 424.048077 269.71259 
L 427.359555 280.465252 
L 430.671033 290.139533 
L 433.98251 298.372776 
L 437.293988 305.549964 
L 440.605466 312.168317 
L 443.916944 318.34166 
L 447.228422 324.008886 
L 450.5399 329.123453 
L 453.851378 333.652594 
L 457.162856 337.54284 
L 460.474334 340.703184 
L 463.785812 343.109054 
L 467.09729 344.992056 
L 470.408767 346.621521 
L 473.720245 348.102588 
L 477.031723 349.453813 
L 480.343201 350.525525 
L 483.654679 351.012831 
L 486.966157 350.88002 
L 490.277635 350.597638 
L 493.589113 350.561798 
L 500.212069 350.743484 
L 503.523547 350.648551 
L 506.835024 350.330239 
L 513.45798 349.202844 
L 523.392414 347.233161 
L 533.326848 345.036853 
L 543.261281 342.224121 
L 546.572759 341.83877 
L 553.195715 341.726325 
L 563.130149 341.807606 
L 566.441627 342.286447 
L 573.064583 343.821911 
L 576.376061 344.32729 
L 579.687538 345.013173 
L 582.999016 346.234034 
L 599.556406 354.09408 
L 602.867884 355.381646 
L 609.49084 357.494326 
L 626.048229 362.582839 
L 632.671185 364.132656 
L 639.294141 365.442536 
L 642.605619 365.891531 
L 649.228574 366.487443 
L 662.474486 367.449569 
L 672.40892 367.572027 
L 675.720398 367.774096 
L 675.720398 367.774096 
" clip-path="url(#p21563b621e)" style="fill: none; stroke: #1f77b4; stroke-width: 1.5; stroke-linecap: square"/>
   </g>
   <g id="line2d_17">
    <path d="M 82.965852 368.40542 
L 86.27733 368.619768 
L 89.588808 368.439557 
L 92.900286 367.736277 
L 96.211764 367.627563 
L 99.523242 366.523631 
L 102.83472 365.933643 
L 109.457676 364.009864 
L 112.769153 362.959788 
L 116.080631 361.689587 
L 119.392109 360.825183 
L 122.703587 359.191537 
L 126.015065 358.932786 
L 129.326543 358.192603 
L 135.949499 357.549754 
L 139.260977 357.069085 
L 145.883933 355.665399 
L 149.19541 354.625502 
L 155.818366 351.536054 
L 159.129844 349.649529 
L 162.441322 348.397429 
L 165.7528 347.72877 
L 172.375756 346.69995 
L 175.687234 347.742341 
L 178.998712 349.367556 
L 182.310189 350.691064 
L 185.621667 351.554553 
L 192.244623 352.967528 
L 195.556101 353.758488 
L 198.867579 354.314755 
L 205.490535 354.84154 
L 208.802013 354.929759 
L 212.113491 354.718998 
L 218.736446 353.991246 
L 222.047924 353.184786 
L 225.359402 351.917749 
L 228.67088 350.356339 
L 231.982358 348.605804 
L 235.293836 346.687769 
L 238.605314 344.462273 
L 241.916792 341.767225 
L 245.22827 338.463493 
L 248.539748 334.59377 
L 251.851226 330.317623 
L 255.162703 325.772141 
L 258.474181 320.930827 
L 261.785659 315.419562 
L 265.097137 309.225074 
L 268.408615 302.756123 
L 271.720093 296.024639 
L 275.031571 288.827257 
L 278.343049 281.043556 
L 281.654527 272.592263 
L 284.966005 263.432206 
L 288.277483 253.684548 
L 291.58896 243.573871 
L 294.900438 232.967373 
L 301.523394 210.850298 
L 318.080784 159.014509 
L 321.392262 149.431025 
L 324.70374 141.33076 
L 328.015217 134.21176 
L 331.326695 126.002463 
L 334.638173 117.395702 
L 337.949651 110.935345 
L 341.261129 108.797737 
L 344.572607 111.559436 
L 347.884085 116.446189 
L 351.195563 121.678565 
L 354.507041 127.242384 
L 357.818519 134.249614 
L 361.129997 143.656853 
L 364.441474 153.401963 
L 371.06443 170.435443 
L 374.375908 180.48624 
L 377.687386 193.740652 
L 380.998864 208.734858 
L 384.310342 223.132581 
L 387.62182 236.474933 
L 390.933298 248.824482 
L 394.244776 260.412341 
L 397.556253 271.035414 
L 400.867731 280.256595 
L 404.179209 288.397005 
L 407.490687 295.814065 
L 410.802165 302.155258 
L 414.113643 307.158768 
L 417.425121 310.856405 
L 420.736599 313.400131 
L 424.048077 315.049778 
L 427.359555 316.023884 
L 430.671033 316.461479 
L 433.98251 316.462909 
L 437.293988 316.020629 
L 440.605466 315.101105 
L 443.916944 313.651883 
L 447.228422 311.615607 
L 450.5399 309.007758 
L 453.851378 305.909727 
L 457.162856 302.396516 
L 460.474334 298.527591 
L 463.785812 294.334992 
L 467.09729 289.756566 
L 470.408767 284.722986 
L 473.720245 279.278645 
L 477.031723 273.520365 
L 480.343201 267.505733 
L 483.654679 261.254605 
L 486.966157 254.739598 
L 490.277635 247.849135 
L 506.835024 211.173359 
L 510.146502 203.339086 
L 513.45798 194.913016 
L 516.769458 186.181004 
L 520.080936 178.301321 
L 523.392414 172.351259 
L 526.703892 168.692052 
L 530.01537 167.383274 
L 533.326848 167.401514 
L 536.638326 167.213208 
L 539.949804 166.518054 
L 543.261281 166.274023 
L 546.572759 167.149595 
L 549.884237 169.122255 
L 553.195715 172.106447 
L 556.507193 176.096014 
L 559.818671 181.088008 
L 563.130149 186.917763 
L 566.441627 193.334174 
L 573.064583 207.056022 
L 576.376061 214.344912 
L 579.687538 222.930467 
L 586.310494 243.833361 
L 589.621972 252.309487 
L 592.93345 259.231212 
L 596.244928 266.459779 
L 599.556406 274.678682 
L 606.179362 291.648587 
L 609.49084 299.583961 
L 612.802317 306.881987 
L 616.113795 313.516963 
L 619.425273 319.508838 
L 622.736751 324.880518 
L 626.048229 329.657808 
L 629.359707 333.900957 
L 632.671185 337.709522 
L 635.982663 341.181934 
L 639.294141 344.409208 
L 642.605619 347.442358 
L 645.917097 350.146202 
L 649.228574 352.351323 
L 652.540052 354.118364 
L 659.163008 357.053113 
L 665.785964 359.554536 
L 669.097442 360.539226 
L 672.40892 361.245397 
L 675.720398 361.773308 
L 675.720398 361.773308 
" clip-path="url(#p21563b621e)" style="fill: none; stroke: #ff7f0e; stroke-width: 1.5; stroke-linecap: square"/>
   </g>
   <g id="line2d_18">
    <path d="M 82.965852 365.914827 
L 86.27733 365.587711 
L 89.588808 364.456062 
L 92.900286 364.062482 
L 99.523242 362.10013 
L 106.146198 359.486002 
L 109.457676 357.525647 
L 112.769153 355.75787 
L 116.080631 353.764297 
L 119.392109 352.193925 
L 122.703587 350.761269 
L 126.015065 349.484409 
L 129.326543 347.773943 
L 135.949499 346.141905 
L 139.260977 345.736892 
L 149.19541 343.011543 
L 152.506888 342.374419 
L 155.818366 340.276147 
L 159.129844 338.008699 
L 162.441322 336.634458 
L 165.7528 336.43436 
L 169.064278 335.976353 
L 172.375756 334.968246 
L 175.687234 335.496682 
L 178.998712 337.849635 
L 182.310189 339.374882 
L 188.933145 340.470921 
L 192.244623 341.04407 
L 195.556101 341.824169 
L 198.867579 343.156494 
L 202.179057 344.734234 
L 205.490535 345.740369 
L 208.802013 346.411187 
L 215.424969 348.13583 
L 222.047924 349.458615 
L 225.359402 349.957568 
L 228.67088 350.130368 
L 235.293836 350.034999 
L 238.605314 349.730646 
L 241.916792 349.140205 
L 245.22827 348.428831 
L 248.539748 347.495864 
L 251.851226 346.097795 
L 255.162703 344.227481 
L 258.474181 341.921947 
L 261.785659 339.148198 
L 265.097137 335.999682 
L 268.408615 332.672511 
L 271.720093 328.867828 
L 275.031571 324.210818 
L 281.654527 313.956269 
L 284.966005 307.822559 
L 291.58896 294.12432 
L 294.900438 286.775834 
L 298.211916 277.982629 
L 304.834872 258.826336 
L 308.14635 248.046437 
L 314.769306 224.420309 
L 318.080784 212.084286 
L 328.015217 172.998427 
L 331.326695 162.114363 
L 334.638173 151.983978 
L 337.949651 140.634487 
L 344.572607 115.549483 
L 347.884085 106.131033 
L 351.195563 99.658559 
L 354.507041 92.750229 
L 357.818519 86.593167 
L 361.129997 84.099423 
L 364.441474 84.369209 
L 367.752952 85.32172 
L 371.06443 84.763925 
L 374.375908 85.543582 
L 377.687386 93.899341 
L 380.998864 105.485933 
L 387.62182 121.924285 
L 390.933298 133.016337 
L 394.244776 147.233979 
L 400.867731 180.055761 
L 407.490687 213.582571 
L 410.802165 229.117237 
L 414.113643 242.713615 
L 417.425121 254.817224 
L 420.736599 265.742975 
L 424.048077 275.576429 
L 427.359555 284.478533 
L 430.671033 292.758154 
L 433.98251 300.623121 
L 437.293988 307.878982 
L 440.605466 314.282575 
L 443.916944 319.885602 
L 447.228422 324.869479 
L 450.5399 329.310987 
L 453.851378 333.191721 
L 457.162856 336.507406 
L 460.474334 339.28488 
L 463.785812 341.556235 
L 467.09729 343.361098 
L 470.408767 344.74679 
L 473.720245 345.808205 
L 477.031723 346.656613 
L 480.343201 347.271828 
L 483.654679 347.510766 
L 486.966157 347.32914 
L 490.277635 346.873193 
L 493.589113 346.268864 
L 496.900591 345.486665 
L 500.212069 344.473956 
L 513.45798 339.851686 
L 520.080936 337.896819 
L 526.703892 335.427978 
L 530.01537 334.525107 
L 536.638326 333.402734 
L 539.949804 332.966098 
L 543.261281 332.750281 
L 546.572759 332.808559 
L 563.130149 333.842176 
L 566.441627 334.638176 
L 569.753105 335.910629 
L 573.064583 337.487427 
L 579.687538 341.078889 
L 596.244928 350.662936 
L 602.867884 353.912487 
L 612.802317 358.379149 
L 619.425273 361.141714 
L 622.736751 362.301781 
L 626.048229 363.226574 
L 632.671185 364.569309 
L 639.294141 365.773323 
L 645.917097 366.663969 
L 652.540052 367.262334 
L 665.785964 368.19957 
L 672.40892 368.835089 
L 675.720398 368.970852 
L 675.720398 368.970852 
" clip-path="url(#p21563b621e)" style="fill: none; stroke: #2ca02c; stroke-width: 1.5; stroke-linecap: square"/>
   </g>
   <g id="line2d_19">
    <path d="M 82.965852 366.391599 
L 86.27733 366.755002 
L 89.588808 366.236819 
L 92.900286 365.497043 
L 96.211764 364.980089 
L 99.523242 364.215945 
L 106.146198 362.391524 
L 109.457676 361.236181 
L 112.769153 360.351324 
L 116.080631 358.831641 
L 122.703587 356.066077 
L 126.015065 354.513188 
L 129.326543 353.705016 
L 132.638021 352.468757 
L 139.260977 351.781761 
L 145.883933 350.482835 
L 149.19541 349.131203 
L 152.506888 347.911755 
L 155.818366 346.90524 
L 159.129844 345.264792 
L 162.441322 343.339804 
L 165.7528 341.774884 
L 169.064278 340.573872 
L 172.375756 340.092016 
L 175.687234 339.756246 
L 178.998712 340.418447 
L 182.310189 340.817655 
L 195.556101 343.503558 
L 198.867579 344.148467 
L 205.490535 345.625118 
L 212.113491 346.700295 
L 218.736446 347.734241 
L 222.047924 347.908363 
L 225.359402 347.691743 
L 228.67088 347.264154 
L 231.982358 346.671777 
L 235.293836 345.859756 
L 238.605314 344.646666 
L 241.916792 343.027476 
L 245.22827 341.24032 
L 248.539748 339.230347 
L 251.851226 336.778098 
L 255.162703 333.888055 
L 258.474181 330.575657 
L 261.785659 326.717827 
L 265.097137 322.3007 
L 268.408615 317.452906 
L 271.720093 312.273843 
L 275.031571 306.685157 
L 278.343049 299.960682 
L 281.654527 292.079587 
L 284.966005 284.618456 
L 288.277483 277.45407 
L 291.58896 268.901549 
L 294.900438 259.007903 
L 301.523394 237.806043 
L 304.834872 226.896645 
L 308.14635 215.601165 
L 324.70374 157.161618 
L 328.015217 144.631629 
L 331.326695 133.616387 
L 334.638173 124.625044 
L 337.949651 116.902537 
L 344.572607 102.262684 
L 347.884085 95.890551 
L 351.195563 90.76029 
L 354.507041 86.458978 
L 357.818519 83.949043 
L 361.129997 84.418262 
L 364.441474 86.729468 
L 367.752952 90.1661 
L 371.06443 95.899607 
L 374.375908 103.647331 
L 377.687386 111.845682 
L 380.998864 121.182215 
L 384.310342 132.452174 
L 387.62182 143.234314 
L 390.933298 152.423306 
L 394.244776 162.050395 
L 397.556253 173.433821 
L 404.179209 199.7701 
L 407.490687 210.752512 
L 417.425121 242.376701 
L 420.736599 251.403067 
L 424.048077 259.32324 
L 427.359555 266.328174 
L 430.671033 272.717427 
L 433.98251 278.701464 
L 437.293988 284.143429 
L 440.605466 288.862128 
L 443.916944 292.91363 
L 447.228422 296.452508 
L 450.5399 299.43552 
L 453.851378 301.641561 
L 457.162856 303.000858 
L 460.474334 303.722997 
L 463.785812 303.990882 
L 467.09729 303.785916 
L 470.408767 303.045561 
L 473.720245 301.722893 
L 477.031723 299.781209 
L 480.343201 297.240976 
L 483.654679 294.176683 
L 486.966157 290.687701 
L 490.277635 286.915295 
L 493.589113 282.955073 
L 496.900591 278.711399 
L 500.212069 274.073662 
L 506.835024 264.319033 
L 513.45798 255.102533 
L 520.080936 246.515756 
L 526.703892 238.245076 
L 530.01537 234.506682 
L 533.326848 231.335723 
L 536.638326 229.013078 
L 539.949804 227.637414 
L 543.261281 227.12174 
L 546.572759 227.406945 
L 549.884237 228.506242 
L 553.195715 230.386268 
L 556.507193 232.783512 
L 559.818671 235.429823 
L 563.130149 238.568993 
L 566.441627 242.697267 
L 579.687538 262.500415 
L 582.999016 268.205823 
L 586.310494 274.594646 
L 592.93345 288.260716 
L 596.244928 294.404692 
L 602.867884 305.346607 
L 609.49084 317.015152 
L 612.802317 322.38553 
L 616.113795 327.230482 
L 619.425273 331.577698 
L 622.736751 335.486484 
L 626.048229 339.033854 
L 629.359707 342.272186 
L 632.671185 345.225388 
L 635.982663 347.904736 
L 639.294141 350.296433 
L 642.605619 352.392327 
L 645.917097 354.227713 
L 649.228574 355.848569 
L 652.540052 357.276343 
L 655.85153 358.516935 
L 659.163008 359.557989 
L 662.474486 360.365861 
L 665.785964 360.943626 
L 675.720398 362.247775 
L 675.720398 362.247775 
" clip-path="url(#p21563b621e)" style="fill: none; stroke: #d62728; stroke-width: 1.5; stroke-linecap: square"/>
   </g>
   <g id="patch_3">
    <path d="M 53.328125 385.478125 
L 53.328125 22.318125 
" style="fill: none; stroke: #000000; stroke-width: 0.8; stroke-linejoin: miter; stroke-linecap: square"/>
   </g>
   <g id="patch_4">
    <path d="M 705.358125 385.478125 
L 705.358125 22.318125 
" style="fill: none; stroke: #000000; stroke-width: 0.8; stroke-linejoin: miter; stroke-linecap: square"/>
   </g>
   <g id="patch_5">
    <path d="M 53.328125 385.478125 
L 705.358125 385.478125 
" style="fill: none; stroke: #000000; stroke-width: 0.8; stroke-linejoin: miter; stroke-linecap: square"/>
   </g>
   <g id="patch_6">
    <path d="M 53.328125 22.318125 
L 705.358125 22.318125 
" style="fill: none; stroke: #000000; stroke-width: 0.8; stroke-linejoin: miter; stroke-linecap: square"/>
   </g>
   <g id="text_18">
    <!-- Interpolated Data Plot -->
    <g transform="translate(313.135 16.318125) scale(0.12 -0.12)">
     <defs>
      <path id="DejaVuSans-49" d="M 628 4666 
L 1259 4666 
L 1259 0 
L 628 0 
L 628 4666 
z
" transform="scale(0.015625)"/>
      <path id="DejaVuSans-6e" d="M 3513 2113 
L 3513 0 
L 2938 0 
L 2938 2094 
Q 2938 2591 2744 2837 
Q 2550 3084 2163 3084 
Q 1697 3084 1428 2787 
Q 1159 2491 1159 1978 
L 1159 0 
L 581 0 
L 581 3500 
L 1159 3500 
L 1159 2956 
Q 1366 3272 1645 3428 
Q 1925 3584 2291 3584 
Q 2894 3584 3203 3211 
Q 3513 2838 3513 2113 
z
" transform="scale(0.015625)"/>
      <path id="DejaVuSans-74" d="M 1172 4494 
L 1172 3500 
L 2356 3500 
L 2356 3053 
L 1172 3053 
L 1172 1153 
Q 1172 725 1289 603 
Q 1406 481 1766 481 
L 2356 481 
L 2356 0 
L 1766 0 
Q 1100 0 847 248 
Q 594 497 594 1153 
L 594 3053 
L 172 3053 
L 172 3500 
L 594 3500 
L 594 4494 
L 1172 4494 
z
" transform="scale(0.015625)"/>
      <path id="DejaVuSans-72" d="M 2631 2963 
Q 2534 3019 2420 3045 
Q 2306 3072 2169 3072 
Q 1681 3072 1420 2755 
Q 1159 2438 1159 1844 
L 1159 0 
L 581 0 
L 581 3500 
L 1159 3500 
L 1159 2956 
Q 1341 3275 1631 3429 
Q 1922 3584 2338 3584 
Q 2397 3584 2469 3576 
Q 2541 3569 2628 3553 
L 2631 2963 
z
" transform="scale(0.015625)"/>
      <path id="DejaVuSans-70" d="M 1159 525 
L 1159 -1331 
L 581 -1331 
L 581 3500 
L 1159 3500 
L 1159 2969 
Q 1341 3281 1617 3432 
Q 1894 3584 2278 3584 
Q 2916 3584 3314 3078 
Q 3713 2572 3713 1747 
Q 3713 922 3314 415 
Q 2916 -91 2278 -91 
Q 1894 -91 1617 61 
Q 1341 213 1159 525 
z
M 3116 1747 
Q 3116 2381 2855 2742 
Q 2594 3103 2138 3103 
Q 1681 3103 1420 2742 
Q 1159 2381 1159 1747 
Q 1159 1113 1420 752 
Q 1681 391 2138 391 
Q 2594 391 2855 752 
Q 3116 1113 3116 1747 
z
" transform="scale(0.015625)"/>
      <path id="DejaVuSans-6f" d="M 1959 3097 
Q 1497 3097 1228 2736 
Q 959 2375 959 1747 
Q 959 1119 1226 758 
Q 1494 397 1959 397 
Q 2419 397 2687 759 
Q 2956 1122 2956 1747 
Q 2956 2369 2687 2733 
Q 2419 3097 1959 3097 
z
M 1959 3584 
Q 2709 3584 3137 3096 
Q 3566 2609 3566 1747 
Q 3566 888 3137 398 
Q 2709 -91 1959 -91 
Q 1206 -91 779 398 
Q 353 888 353 1747 
Q 353 2609 779 3096 
Q 1206 3584 1959 3584 
z
" transform="scale(0.015625)"/>
      <path id="DejaVuSans-64" d="M 2906 2969 
L 2906 4863 
L 3481 4863 
L 3481 0 
L 2906 0 
L 2906 525 
Q 2725 213 2448 61 
Q 2172 -91 1784 -91 
Q 1150 -91 751 415 
Q 353 922 353 1747 
Q 353 2572 751 3078 
Q 1150 3584 1784 3584 
Q 2172 3584 2448 3432 
Q 2725 3281 2906 2969 
z
M 947 1747 
Q 947 1113 1208 752 
Q 1469 391 1925 391 
Q 2381 391 2643 752 
Q 2906 1113 2906 1747 
Q 2906 2381 2643 2742 
Q 2381 3103 1925 3103 
Q 1469 3103 1208 2742 
Q 947 2381 947 1747 
z
" transform="scale(0.015625)"/>
      <path id="DejaVuSans-20" transform="scale(0.015625)"/>
      <path id="DejaVuSans-50" d="M 1259 4147 
L 1259 2394 
L 2053 2394 
Q 2494 2394 2734 2622 
Q 2975 2850 2975 3272 
Q 2975 3691 2734 3919 
Q 2494 4147 2053 4147 
L 1259 4147 
z
M 628 4666 
L 2053 4666 
Q 2838 4666 3239 4311 
Q 3641 3956 3641 3272 
Q 3641 2581 3239 2228 
Q 2838 1875 2053 1875 
L 1259 1875 
L 1259 0 
L 628 0 
L 628 4666 
z
" transform="scale(0.015625)"/>
     </defs>
     <use xlink:href="#DejaVuSans-49"/>
     <use xlink:href="#DejaVuSans-6e" transform="translate(29.492188 0)"/>
     <use xlink:href="#DejaVuSans-74" transform="translate(92.871094 0)"/>
     <use xlink:href="#DejaVuSans-65" transform="translate(132.080078 0)"/>
     <use xlink:href="#DejaVuSans-72" transform="translate(193.603516 0)"/>
     <use xlink:href="#DejaVuSans-70" transform="translate(234.716797 0)"/>
     <use xlink:href="#DejaVuSans-6f" transform="translate(298.193359 0)"/>
     <use xlink:href="#DejaVuSans-6c" transform="translate(359.375 0)"/>
     <use xlink:href="#DejaVuSans-61" transform="translate(387.158203 0)"/>
     <use xlink:href="#DejaVuSans-74" transform="translate(448.4375 0)"/>
     <use xlink:href="#DejaVuSans-65" transform="translate(487.646484 0)"/>
     <use xlink:href="#DejaVuSans-64" transform="translate(549.169922 0)"/>
     <use xlink:href="#DejaVuSans-20" transform="translate(612.646484 0)"/>
     <use xlink:href="#DejaVuSans-44" transform="translate(644.433594 0)"/>
     <use xlink:href="#DejaVuSans-61" transform="translate(721.435547 0)"/>
     <use xlink:href="#DejaVuSans-74" transform="translate(782.714844 0)"/>
     <use xlink:href="#DejaVuSans-61" transform="translate(821.923828 0)"/>
     <use xlink:href="#DejaVuSans-20" transform="translate(883.203125 0)"/>
     <use xlink:href="#DejaVuSans-50" transform="translate(914.990234 0)"/>
     <use xlink:href="#DejaVuSans-6c" transform="translate(975.292969 0)"/>
     <use xlink:href="#DejaVuSans-6f" transform="translate(1003.076172 0)"/>
     <use xlink:href="#DejaVuSans-74" transform="translate(1064.257812 0)"/>
    </g>
   </g>
   <g id="legend_1">
    <g id="patch_7">
     <path d="M 509.645625 90.143125 
L 698.358125 90.143125 
Q 700.358125 90.143125 700.358125 88.143125 
L 700.358125 29.318125 
Q 700.358125 27.318125 698.358125 27.318125 
L 509.645625 27.318125 
Q 507.645625 27.318125 507.645625 29.318125 
L 507.645625 88.143125 
Q 507.645625 90.143125 509.645625 90.143125 
z
" style="fill: #ffffff; opacity: 0.8; stroke: #cccccc; stroke-linejoin: miter"/>
    </g>
    <g id="line2d_20">
     <path d="M 511.645625 35.416562 
L 521.645625 35.416562 
L 531.645625 35.416562 
" style="fill: none; stroke: #1f77b4; stroke-width: 1.5; stroke-linecap: square"/>
    </g>
    <g id="text_19">
     <!-- n279k_N279K  -->
     <g transform="translate(539.645625 38.916562) scale(0.1 -0.1)">
      <defs>
       <path id="DejaVuSans-39" d="M 703 97 
L 703 672 
Q 941 559 1184 500 
Q 1428 441 1663 441 
Q 2288 441 2617 861 
Q 2947 1281 2994 2138 
Q 2813 1869 2534 1725 
Q 2256 1581 1919 1581 
Q 1219 1581 811 2004 
Q 403 2428 403 3163 
Q 403 3881 828 4315 
Q 1253 4750 1959 4750 
Q 2769 4750 3195 4129 
Q 3622 3509 3622 2328 
Q 3622 1225 3098 567 
Q 2575 -91 1691 -91 
Q 1453 -91 1209 -44 
Q 966 3 703 97 
z
M 1959 2075 
Q 2384 2075 2632 2365 
Q 2881 2656 2881 3163 
Q 2881 3666 2632 3958 
Q 2384 4250 1959 4250 
Q 1534 4250 1286 3958 
Q 1038 3666 1038 3163 
Q 1038 2656 1286 2365 
Q 1534 2075 1959 2075 
z
" transform="scale(0.015625)"/>
       <path id="DejaVuSans-5f" d="M 3263 -1063 
L 3263 -1509 
L -63 -1509 
L -63 -1063 
L 3263 -1063 
z
" transform="scale(0.015625)"/>
       <path id="DejaVuSans-4e" d="M 628 4666 
L 1478 4666 
L 3547 763 
L 3547 4666 
L 4159 4666 
L 4159 0 
L 3309 0 
L 1241 3903 
L 1241 0 
L 628 0 
L 628 4666 
z
" transform="scale(0.015625)"/>
       <path id="DejaVuSans-4b" d="M 628 4666 
L 1259 4666 
L 1259 2694 
L 3353 4666 
L 4166 4666 
L 1850 2491 
L 4331 0 
L 3500 0 
L 1259 2247 
L 1259 0 
L 628 0 
L 628 4666 
z
" transform="scale(0.015625)"/>
       <path id="DejaVuSans-a0" transform="scale(0.015625)"/>
      </defs>
      <use xlink:href="#DejaVuSans-6e"/>
      <use xlink:href="#DejaVuSans-32" transform="translate(63.378906 0)"/>
      <use xlink:href="#DejaVuSans-37" transform="translate(127.001953 0)"/>
      <use xlink:href="#DejaVuSans-39" transform="translate(190.625 0)"/>
      <use xlink:href="#DejaVuSans-6b" transform="translate(254.248047 0)"/>
      <use xlink:href="#DejaVuSans-5f" transform="translate(312.158203 0)"/>
      <use xlink:href="#DejaVuSans-4e" transform="translate(362.158203 0)"/>
      <use xlink:href="#DejaVuSans-32" transform="translate(436.962891 0)"/>
      <use xlink:href="#DejaVuSans-37" transform="translate(500.585938 0)"/>
      <use xlink:href="#DejaVuSans-39" transform="translate(564.208984 0)"/>
      <use xlink:href="#DejaVuSans-4b" transform="translate(627.832031 0)"/>
      <use xlink:href="#DejaVuSans-a0" transform="translate(693.408203 0)"/>
     </g>
    </g>
    <g id="line2d_21">
     <path d="M 511.645625 50.372812 
L 521.645625 50.372812 
L 531.645625 50.372812 
" style="fill: none; stroke: #ff7f0e; stroke-width: 1.5; stroke-linecap: square"/>
    </g>
    <g id="text_20">
     <!-- n279k_WT  -->
     <g transform="translate(539.645625 53.872812) scale(0.1 -0.1)">
      <defs>
       <path id="DejaVuSans-57" d="M 213 4666 
L 850 4666 
L 1831 722 
L 2809 4666 
L 3519 4666 
L 4500 722 
L 5478 4666 
L 6119 4666 
L 4947 0 
L 4153 0 
L 3169 4050 
L 2175 0 
L 1381 0 
L 213 4666 
z
" transform="scale(0.015625)"/>
       <path id="DejaVuSans-54" d="M -19 4666 
L 3928 4666 
L 3928 4134 
L 2272 4134 
L 2272 0 
L 1638 0 
L 1638 4134 
L -19 4134 
L -19 4666 
z
" transform="scale(0.015625)"/>
      </defs>
      <use xlink:href="#DejaVuSans-6e"/>
      <use xlink:href="#DejaVuSans-32" transform="translate(63.378906 0)"/>
      <use xlink:href="#DejaVuSans-37" transform="translate(127.001953 0)"/>
      <use xlink:href="#DejaVuSans-39" transform="translate(190.625 0)"/>
      <use xlink:href="#DejaVuSans-6b" transform="translate(254.248047 0)"/>
      <use xlink:href="#DejaVuSans-5f" transform="translate(312.158203 0)"/>
      <use xlink:href="#DejaVuSans-57" transform="translate(362.158203 0)"/>
      <use xlink:href="#DejaVuSans-54" transform="translate(461.035156 0)"/>
      <use xlink:href="#DejaVuSans-a0" transform="translate(522.119141 0)"/>
     </g>
    </g>
    <g id="line2d_22">
     <path d="M 511.645625 65.329062 
L 521.645625 65.329062 
L 531.645625 65.329062 
" style="fill: none; stroke: #2ca02c; stroke-width: 1.5; stroke-linecap: square"/>
    </g>
    <g id="text_21">
     <!-- n279k_(N279K+WT) -->
     <g transform="translate(539.645625 68.829062) scale(0.1 -0.1)">
      <defs>
       <path id="DejaVuSans-28" d="M 1984 4856 
Q 1566 4138 1362 3434 
Q 1159 2731 1159 2009 
Q 1159 1288 1364 580 
Q 1569 -128 1984 -844 
L 1484 -844 
Q 1016 -109 783 600 
Q 550 1309 550 2009 
Q 550 2706 781 3412 
Q 1013 4119 1484 4856 
L 1984 4856 
z
" transform="scale(0.015625)"/>
       <path id="DejaVuSans-2b" d="M 2944 4013 
L 2944 2272 
L 4684 2272 
L 4684 1741 
L 2944 1741 
L 2944 0 
L 2419 0 
L 2419 1741 
L 678 1741 
L 678 2272 
L 2419 2272 
L 2419 4013 
L 2944 4013 
z
" transform="scale(0.015625)"/>
       <path id="DejaVuSans-29" d="M 513 4856 
L 1013 4856 
Q 1481 4119 1714 3412 
Q 1947 2706 1947 2009 
Q 1947 1309 1714 600 
Q 1481 -109 1013 -844 
L 513 -844 
Q 928 -128 1133 580 
Q 1338 1288 1338 2009 
Q 1338 2731 1133 3434 
Q 928 4138 513 4856 
z
" transform="scale(0.015625)"/>
      </defs>
      <use xlink:href="#DejaVuSans-6e"/>
      <use xlink:href="#DejaVuSans-32" transform="translate(63.378906 0)"/>
      <use xlink:href="#DejaVuSans-37" transform="translate(127.001953 0)"/>
      <use xlink:href="#DejaVuSans-39" transform="translate(190.625 0)"/>
      <use xlink:href="#DejaVuSans-6b" transform="translate(254.248047 0)"/>
      <use xlink:href="#DejaVuSans-5f" transform="translate(312.158203 0)"/>
      <use xlink:href="#DejaVuSans-28" transform="translate(362.158203 0)"/>
      <use xlink:href="#DejaVuSans-4e" transform="translate(401.171875 0)"/>
      <use xlink:href="#DejaVuSans-32" transform="translate(475.976562 0)"/>
      <use xlink:href="#DejaVuSans-37" transform="translate(539.599609 0)"/>
      <use xlink:href="#DejaVuSans-39" transform="translate(603.222656 0)"/>
      <use xlink:href="#DejaVuSans-4b" transform="translate(666.845703 0)"/>
      <use xlink:href="#DejaVuSans-2b" transform="translate(732.421875 0)"/>
      <use xlink:href="#DejaVuSans-57" transform="translate(816.210938 0)"/>
      <use xlink:href="#DejaVuSans-54" transform="translate(915.087891 0)"/>
      <use xlink:href="#DejaVuSans-29" transform="translate(976.171875 0)"/>
     </g>
    </g>
    <g id="line2d_23">
     <path d="M 511.645625 80.285312 
L 521.645625 80.285312 
L 531.645625 80.285312 
" style="fill: none; stroke: #d62728; stroke-width: 1.5; stroke-linecap: square"/>
    </g>
    <g id="text_22">
     <!-- n279k_(N279K +WT) CONTROL -->
     <g transform="translate(539.645625 83.785312) scale(0.1 -0.1)">
      <defs>
       <path id="DejaVuSans-43" d="M 4122 4306 
L 4122 3641 
Q 3803 3938 3442 4084 
Q 3081 4231 2675 4231 
Q 1875 4231 1450 3742 
Q 1025 3253 1025 2328 
Q 1025 1406 1450 917 
Q 1875 428 2675 428 
Q 3081 428 3442 575 
Q 3803 722 4122 1019 
L 4122 359 
Q 3791 134 3420 21 
Q 3050 -91 2638 -91 
Q 1578 -91 968 557 
Q 359 1206 359 2328 
Q 359 3453 968 4101 
Q 1578 4750 2638 4750 
Q 3056 4750 3426 4639 
Q 3797 4528 4122 4306 
z
" transform="scale(0.015625)"/>
       <path id="DejaVuSans-4f" d="M 2522 4238 
Q 1834 4238 1429 3725 
Q 1025 3213 1025 2328 
Q 1025 1447 1429 934 
Q 1834 422 2522 422 
Q 3209 422 3611 934 
Q 4013 1447 4013 2328 
Q 4013 3213 3611 3725 
Q 3209 4238 2522 4238 
z
M 2522 4750 
Q 3503 4750 4090 4092 
Q 4678 3434 4678 2328 
Q 4678 1225 4090 567 
Q 3503 -91 2522 -91 
Q 1538 -91 948 565 
Q 359 1222 359 2328 
Q 359 3434 948 4092 
Q 1538 4750 2522 4750 
z
" transform="scale(0.015625)"/>
       <path id="DejaVuSans-52" d="M 2841 2188 
Q 3044 2119 3236 1894 
Q 3428 1669 3622 1275 
L 4263 0 
L 3584 0 
L 2988 1197 
Q 2756 1666 2539 1819 
Q 2322 1972 1947 1972 
L 1259 1972 
L 1259 0 
L 628 0 
L 628 4666 
L 2053 4666 
Q 2853 4666 3247 4331 
Q 3641 3997 3641 3322 
Q 3641 2881 3436 2590 
Q 3231 2300 2841 2188 
z
M 1259 4147 
L 1259 2491 
L 2053 2491 
Q 2509 2491 2742 2702 
Q 2975 2913 2975 3322 
Q 2975 3731 2742 3939 
Q 2509 4147 2053 4147 
L 1259 4147 
z
" transform="scale(0.015625)"/>
       <path id="DejaVuSans-4c" d="M 628 4666 
L 1259 4666 
L 1259 531 
L 3531 531 
L 3531 0 
L 628 0 
L 628 4666 
z
" transform="scale(0.015625)"/>
      </defs>
      <use xlink:href="#DejaVuSans-6e"/>
      <use xlink:href="#DejaVuSans-32" transform="translate(63.378906 0)"/>
      <use xlink:href="#DejaVuSans-37" transform="translate(127.001953 0)"/>
      <use xlink:href="#DejaVuSans-39" transform="translate(190.625 0)"/>
      <use xlink:href="#DejaVuSans-6b" transform="translate(254.248047 0)"/>
      <use xlink:href="#DejaVuSans-5f" transform="translate(312.158203 0)"/>
      <use xlink:href="#DejaVuSans-28" transform="translate(362.158203 0)"/>
      <use xlink:href="#DejaVuSans-4e" transform="translate(401.171875 0)"/>
      <use xlink:href="#DejaVuSans-32" transform="translate(475.976562 0)"/>
      <use xlink:href="#DejaVuSans-37" transform="translate(539.599609 0)"/>
      <use xlink:href="#DejaVuSans-39" transform="translate(603.222656 0)"/>
      <use xlink:href="#DejaVuSans-4b" transform="translate(666.845703 0)"/>
      <use xlink:href="#DejaVuSans-a0" transform="translate(732.421875 0)"/>
      <use xlink:href="#DejaVuSans-2b" transform="translate(764.208984 0)"/>
      <use xlink:href="#DejaVuSans-57" transform="translate(847.998047 0)"/>
      <use xlink:href="#DejaVuSans-54" transform="translate(946.875 0)"/>
      <use xlink:href="#DejaVuSans-29" transform="translate(1007.958984 0)"/>
      <use xlink:href="#DejaVuSans-20" transform="translate(1046.972656 0)"/>
      <use xlink:href="#DejaVuSans-43" transform="translate(1078.759766 0)"/>
      <use xlink:href="#DejaVuSans-4f" transform="translate(1148.583984 0)"/>
      <use xlink:href="#DejaVuSans-4e" transform="translate(1227.294922 0)"/>
      <use xlink:href="#DejaVuSans-54" transform="translate(1302.099609 0)"/>
      <use xlink:href="#DejaVuSans-52" transform="translate(1363.183594 0)"/>
      <use xlink:href="#DejaVuSans-4f" transform="translate(1432.666016 0)"/>
      <use xlink:href="#DejaVuSans-4c" transform="translate(1511.376953 0)"/>
     </g>
    </g>
   </g>
  </g>
 </g>
 <defs>
  <clipPath id="p21563b621e">
   <rect x="53.328125" y="22.318125" width="652.03" height="363.16"/>
  </clipPath>
 </defs>
</svg>
